<?xml version="1.0" standalone="no"?>
<!DOCTYPE svg PUBLIC "-//W3C//DTD SVG 20010904//EN"
 "http://www.w3.org/TR/2001/REC-SVG-20010904/DTD/svg10.dtd">
<svg version="1.0" xmlns="http://www.w3.org/2000/svg"
 width="512.000000pt" height="512.000000pt" viewBox="0 0 512.000000 512.000000"
 preserveAspectRatio="xMidYMid meet">
<metadata>
Created by potrace 1.16, written by Peter Selinger 2001-2019
</metadata>
<g transform="translate(0.000000,512.000000) scale(0.100000,-0.100000)"
fill="#000000" stroke="none">
<path d="M1187 5097 c-76 -28 -161 -98 -203 -167 -69 -113 -64 58 -64 -2370 0
-2428 -5 -2257 64 -2370 44 -72 128 -140 208 -168 l63 -22 1320 2 1320 3 65
31 c82 40 136 87 177 155 67 113 63 -55 63 2369 0 2428 5 2257 -64 2370 -44
72 -128 140 -208 168 l-63 22 -1310 -1 -1310 0 -58 -22z m2633 -208 c59 -13
108 -52 131 -103 18 -40 19 -108 19 -1998 l0 -1958 -1410 0 -1410 0 0 1958 c0
1890 1 1958 19 1998 22 49 73 90 127 103 56 13 2466 13 2524 0z m148 -4408
c-3 -125 -4 -131 -33 -172 -16 -23 -48 -52 -70 -63 -40 -21 -45 -21 -1275 -24
-839 -2 -1251 1 -1284 8 -63 13 -113 51 -137 104 -15 32 -19 65 -19 159 l0
117 1411 0 1411 0 -4 -129z"/>
<path d="M2178 4481 c-29 -26 -33 -35 -33 -81 0 -46 4 -55 33 -81 l32 -29 350
0 350 0 31 28 c24 21 32 38 36 75 5 43 3 49 -30 82 l-35 35 -351 0 -351 0 -32
-29z"/>
</g>
</svg>
